<?xml version="1.0" standalone="no"?><svg xmlns="http://www.w3.org/2000/svg" viewBox="0 0 1440 320"><path fill="#97CADB" fill-opacity="1" d="M0,64L8.9,85.3C17.8,107,36,149,53,186.7C71.1,224,89,256,107,261.3C124.4,267,142,245,160,218.7C177.8,192,196,160,213,149.3C231.1,139,249,149,267,144C284.4,139,302,117,320,144C337.8,171,356,245,373,245.3C391.1,245,409,171,427,133.3C444.4,96,462,96,480,106.7C497.8,117,516,139,533,170.7C551.1,203,569,245,587,234.7C604.4,224,622,160,640,160C657.8,160,676,224,693,261.3C711.1,299,729,309,747,314.7C764.4,320,782,320,800,266.7C817.8,213,836,107,853,101.3C871.1,96,889,192,907,202.7C924.4,213,942,139,960,122.7C977.8,107,996,149,1013,144C1031.1,139,1049,85,1067,64C1084.4,43,1102,53,1120,96C1137.8,139,1156,213,1173,234.7C1191.1,256,1209,224,1227,181.3C1244.4,139,1262,85,1280,85.3C1297.8,85,1316,139,1333,144C1351.1,149,1369,107,1387,101.3C1404.4,96,1422,128,1431,144L1440,160L1440,0L1431.1,0C1422.2,0,1404,0,1387,0C1368.9,0,1351,0,1333,0C1315.6,0,1298,0,1280,0C1262.2,0,1244,0,1227,0C1208.9,0,1191,0,1173,0C1155.6,0,1138,0,1120,0C1102.2,0,1084,0,1067,0C1048.9,0,1031,0,1013,0C995.6,0,978,0,960,0C942.2,0,924,0,907,0C888.9,0,871,0,853,0C835.6,0,818,0,800,0C782.2,0,764,0,747,0C728.9,0,711,0,693,0C675.6,0,658,0,640,0C622.2,0,604,0,587,0C568.9,0,551,0,533,0C515.6,0,498,0,480,0C462.2,0,444,0,427,0C408.9,0,391,0,373,0C355.6,0,338,0,320,0C302.2,0,284,0,267,0C248.9,0,231,0,213,0C195.6,0,178,0,160,0C142.2,0,124,0,107,0C88.9,0,71,0,53,0C35.6,0,18,0,9,0L0,0Z"></path></svg>