<?xml version="1.0" standalone="no"?><svg xmlns="http://www.w3.org/2000/svg" viewBox="0 0 1440 320"><path fill="#97CADB" fill-opacity="1" d="M0,160L0,160L40,160L40,64L80,64L80,128L120,128L120,192L160,192L160,64L200,64L200,192L240,192L240,256L280,256L280,160L320,160L320,160L360,160L360,96L400,96L400,96L440,96L440,64L480,64L480,224L520,224L520,192L560,192L560,96L600,96L600,96L640,96L640,224L680,224L680,128L720,128L720,192L760,192L760,128L800,128L800,224L840,224L840,96L880,96L880,288L920,288L920,256L960,256L960,192L1000,192L1000,96L1040,96L1040,32L1080,32L1080,64L1120,64L1120,320L1160,320L1160,224L1200,224L1200,32L1240,32L1240,224L1280,224L1280,96L1320,96L1320,256L1360,256L1360,224L1400,224L1400,192L1440,192L1440,0L1400,0L1400,0L1360,0L1360,0L1320,0L1320,0L1280,0L1280,0L1240,0L1240,0L1200,0L1200,0L1160,0L1160,0L1120,0L1120,0L1080,0L1080,0L1040,0L1040,0L1000,0L1000,0L960,0L960,0L920,0L920,0L880,0L880,0L840,0L840,0L800,0L800,0L760,0L760,0L720,0L720,0L680,0L680,0L640,0L640,0L600,0L600,0L560,0L560,0L520,0L520,0L480,0L480,0L440,0L440,0L400,0L400,0L360,0L360,0L320,0L320,0L280,0L280,0L240,0L240,0L200,0L200,0L160,0L160,0L120,0L120,0L80,0L80,0L40,0L40,0L0,0L0,0Z"></path></svg>